<svg xmlns="http://www.w3.org/2000/svg" xmlns:xlink="http://www.w3.org/1999/xlink" width="120" zoomAndPan="magnify" viewBox="0 0 90 89.999999" height="120" preserveAspectRatio="xMidYMid meet" version="1.0"><defs><clipPath id="6cb8a353af"><path d="M 0 6.21875 L 90 6.21875 L 90 83.46875 L 0 83.46875 Z M 0 6.21875 " clip-rule="nonzero"/></clipPath></defs><g clip-path="url(#6cb8a353af)"><path fill="#e620e9" d="M 88.976562 64.519531 L 47.785156 7.660156 C 46.488281 5.886719 43.496094 5.886719 42.214844 7.660156 L 1.023438 64.519531 C 0.59375 65.113281 0.378906 65.78125 0.378906 66.515625 C 0.378906 66.875 0.433594 67.226562 0.546875 67.566406 C 0.65625 67.910156 0.820312 68.226562 1.03125 68.519531 C 1.242188 68.808594 1.492188 69.0625 1.78125 69.273438 C 2.074219 69.488281 2.390625 69.652344 2.734375 69.765625 L 43.925781 83.1875 L 43.929688 83.1875 C 44.640625 83.417969 45.347656 83.417969 46.058594 83.1875 L 46.066406 83.1875 L 87.257812 69.765625 C 87.777344 69.597656 88.230469 69.320312 88.617188 68.933594 C 89.003906 68.546875 89.28125 68.09375 89.449219 67.574219 C 89.621094 67.054688 89.664062 66.527344 89.578125 65.988281 C 89.492188 65.449219 89.289062 64.957031 88.964844 64.519531 Z M 45 15.496094 L 61.511719 38.285156 L 46.070312 33.257812 C 45.953125 33.21875 45.824219 33.226562 45.707031 33.195312 C 45.589844 33.167969 45.472656 33.148438 45.351562 33.136719 C 45.234375 33.121094 45.121094 33.078125 45 33.078125 C 44.882812 33.078125 44.773438 33.121094 44.652344 33.136719 C 44.535156 33.152344 44.414062 33.171875 44.296875 33.195312 C 44.175781 33.21875 44.050781 33.21875 43.941406 33.257812 L 28.59375 38.257812 L 28.496094 38.289062 L 45.007812 15.496094 Z M 21.675781 47.699219 L 39.648438 41.839844 L 41.566406 41.21875 L 41.566406 75.230469 L 9.339844 64.726562 Z M 48.4375 75.226562 L 48.4375 41.21875 L 68.332031 47.699219 L 80.664062 64.71875 L 48.433594 75.226562 Z M 48.4375 75.226562 " fill-opacity="1" fill-rule="nonzero"/></g></svg>